<svg width="400" height="129" viewBox="0 0 400 129" fill="none"
  xmlns="http://www.w3.org/2000/svg">
  <path d="M62.9771 56.4922C62.7693 57.2135 62.5981 57.9593 62.5003 58.7662C62.3047 60.3556 61.2655 60.9302 59.9696 60.4167C58.8081 59.9521 58.1968 59.9644 57.4633 60.9547C56.0084 62.9108 54.0645 64.2067 51.6927 64.8425C50.8491 65.0748 49.9566 65.2826 49.2231 65.7227C47.5359 66.7252 45.9955 67.1776 44.6629 65.8939C44.6262 65.8572 44.235 65.5882 44.1983 65.5516C43.5625 66.2729 43.4036 66.5663 42.8412 67.361L42.9879 67.4955C40.066 72.2635 38.5377 77.1172 38.2932 82.1909C38.4521 93.8176 46.4112 103.525 57.1821 106.361C60.0063 106.912 62.9771 107.07 66.1069 106.789C69.0045 106.533 71.7186 105.933 74.2127 104.894C77.6726 103.305 80.7168 100.982 83.1253 98.0967C83.1375 98.0845 83.1497 98.06 83.162 98.0478C85.4604 95.1258 87.0742 92.0694 88.0156 88.8662C88.1623 88.3405 88.309 87.8148 88.4313 87.2768C88.4924 87.0079 88.5413 86.7389 88.5902 86.4699C88.688 85.9687 88.7614 85.4552 88.8225 84.9295C88.8714 84.5138 88.9081 84.0981 88.9325 83.6824C88.957 83.3646 88.9692 83.0589 88.9814 82.7411C89.0426 80.4915 88.8103 78.1686 88.2724 75.7846C88.2112 75.5523 88.1623 75.32 88.089 75.0877C88.0034 74.7576 87.9178 74.4397 87.82 74.1219C86.5974 70.283 84.4823 66.8353 81.7193 64.0356C81.267 63.5832 80.8024 63.1553 80.3011 62.7274C76.6823 59.622 72.5133 57.6292 67.6841 57.238C66.9505 57.1769 66.5593 56.9813 66.4248 56.6267C65.5079 56.5289 64.5787 56.4678 63.6373 56.4678C63.405 56.4678 63.185 56.4922 62.9527 56.5045L62.9771 56.4922Z" fill="#006269"/>
  <path fill-rule="evenodd" clip-rule="evenodd" d="M86.1206 79.7947H86.1817C86.1817 79.7947 86.1573 79.6724 86.1573 79.599C86.0473 79.5257 85.8883 79.4646 85.7783 79.4768C85.6533 79.5006 85.6037 79.3622 85.556 79.2294C85.5058 79.0893 85.4577 78.9554 85.3259 79.0244C85.057 79.1589 84.7269 78.5843 85.0692 78.6699H85.9739C85.8517 78.0708 85.7049 77.484 85.5216 76.8971C85.4971 76.8605 85.4726 76.836 85.436 76.8238C85.3015 76.7627 85.3626 76.7382 85.4727 76.7627C82.8686 68.1679 75.4475 61.7371 66.7671 61.6516C66.3362 61.6516 65.9683 62.3192 65.6062 62.9762C65.3109 63.512 65.0195 64.0407 64.701 64.1945C64.1574 64.4721 63.5045 64.3093 62.8806 64.1538C62.1853 63.9805 61.5261 63.8162 61.0944 64.2801C59.4683 66.1017 57.7445 67.1776 55.9351 67.8867L55.9703 67.8969C56.1677 67.9535 56.3747 68.0128 56.5708 68.4858C56.6931 68.4858 56.8276 68.5102 56.9498 68.5347C57.0267 68.5774 57.1811 68.5127 57.363 68.4365C57.4416 68.4036 57.5252 68.3686 57.61 68.3391C57.7113 68.3022 57.7849 68.2446 57.8483 68.1949C57.9533 68.1126 58.0306 68.052 58.1602 68.1435C58.2753 68.218 58.4055 68.1799 58.6007 68.1228C58.7577 68.0768 58.9567 68.0186 59.2238 67.9967C59.5614 67.9832 59.7796 68.1636 59.9609 68.3134C60.108 68.4349 60.2307 68.5363 60.373 68.498C60.6909 68.4124 60.9966 68.4736 60.911 68.6692C60.8562 68.7718 60.8934 68.9319 60.9325 69.1001C60.9632 69.2325 60.9951 69.3699 60.9843 69.4883C60.9477 69.745 61.29 69.9896 61.3756 70.0507H61.3932C61.3018 70.1508 61.1595 70.283 61.0455 70.283C60.8621 70.283 60.7521 70.5153 60.8132 70.9677C60.8743 71.42 60.3853 70.9921 60.4097 70.772C60.4342 70.552 59.8351 70.6253 59.4561 70.7354C59.3554 70.7656 59.2492 70.782 59.144 70.7982C58.8661 70.8411 58.5955 70.8828 58.4536 71.1755C58.3635 71.3614 58.2006 71.5162 58.0428 71.6662C57.8582 71.8416 57.6806 72.0104 57.6345 72.2147C57.5781 72.4402 57.3063 72.6698 57.0769 72.8637C56.9084 73.0061 56.7627 73.1292 56.742 73.2172C56.7054 73.3726 56.375 73.1043 56.1646 72.9335C56.0936 72.8758 56.0362 72.8292 56.0084 72.8138C55.9555 72.7843 55.8658 72.9446 55.7583 73.1365C55.6424 73.3434 55.5059 73.5871 55.3727 73.6696C55.2601 73.7339 55.1452 73.9346 55.033 74.1305C54.8894 74.3812 54.7505 74.6238 54.6269 74.562C54.4069 74.452 53.8811 75.0878 53.8811 75.0878C53.7222 75.1122 53.5633 75.1489 53.4043 75.1978C53.3921 75.6868 53.5511 76.1759 53.8445 76.5671C54.2846 77.0561 54.1134 78.3398 54.0034 79.0122C53.9056 79.5991 53.6 80.1248 53.1354 80.4793C52.8468 80.6784 52.9632 80.8126 53.155 81.0337L53.155 81.0337L53.1551 81.0338L53.1551 81.0338L53.1552 81.0339L53.1552 81.034L53.1553 81.0341C53.1991 81.0845 53.2467 81.1394 53.2943 81.2007C53.5511 81.5308 53.8811 81.7508 54.2724 81.5308C54.4283 81.4457 54.6154 81.3935 54.8009 81.3417C55.0955 81.2595 55.3864 81.1784 55.5439 80.9684C55.7256 80.737 55.7566 80.9691 55.7916 81.2307C55.8084 81.3562 55.8261 81.4885 55.8617 81.5797C55.9595 81.9953 55.9106 82.4355 55.7395 82.8145C55.7171 82.8755 55.6897 82.9471 55.6592 83.0268C55.4393 83.601 55.0587 84.5946 55.2627 85.0885C55.336 85.3819 55.3482 85.6753 55.2871 85.9687C55.226 86.2622 55.1037 86.5311 54.9081 86.7634C54.775 86.8902 54.7306 87.1319 54.6864 87.3728C54.6453 87.5966 54.6043 87.8198 54.4924 87.9493C54.4561 88.0098 54.3839 88.0943 54.3113 88.179C54.2925 88.175 54.2753 88.1678 54.2601 88.1571C54.185 88.2597 54.0983 88.3804 54.0069 88.5077C53.7712 88.8359 53.5037 89.2084 53.3188 89.4286C53.0009 89.8076 52.7319 90.1499 52.9764 90.2966C53.221 90.4434 53.4532 91.2625 53.6489 92.1183C53.6978 92.3139 53.7222 92.5218 53.71 92.7296C53.8569 92.7982 54.0039 92.8746 54.1445 92.9652C54.0186 92.8852 53.8891 92.8164 53.7467 92.754C53.71 93.3164 53.5633 93.8544 53.3187 94.3556C53.1477 94.7132 53.2535 95.3673 53.3406 95.9063C53.3906 96.215 53.4344 96.486 53.4166 96.6418C53.3764 96.9933 53.5012 97.2128 53.7435 97.639C53.7962 97.7317 53.8545 97.8342 53.9178 97.95C54.2846 98.6102 55.067 99.7594 55.3116 99.7716C55.5438 99.7716 55.4705 98.5735 55.3238 98.0967C55.2131 97.773 55.5118 97.3188 55.8148 96.858C55.9467 96.6575 56.0795 96.4557 56.1796 96.2628C56.349 95.8957 56.2127 95.6672 56.079 95.4431C55.9812 95.2792 55.8848 95.1176 55.9106 94.9058H55.8739C55.9144 94.6292 55.8246 94.5499 55.7442 94.4789C55.6788 94.4212 55.6197 94.3691 55.6417 94.2211V94.0622C55.5316 94.05 55.4583 94.0622 55.3971 94.0866C55.3301 94.1202 55.2888 94.1758 55.255 94.2212C55.2273 94.2585 55.2047 94.289 55.1771 94.2945H55.1526C55.1375 94.2945 55.1271 94.2898 55.1126 94.2834C55.1037 94.2794 55.0933 94.2747 55.0793 94.27C54.9815 94.2456 54.8348 94.1845 54.7003 94.1233L54.6758 94.1111C54.6758 94.1111 54.6025 94.0622 54.578 94.0377L54.557 94.0221C54.5187 93.9938 54.4906 93.973 54.4802 93.9522C54.4802 93.9489 54.48 93.9456 54.4797 93.9423C54.6186 94.0964 55.0472 94.2509 55.1526 94.27C55.198 94.2791 55.2248 94.2411 55.2594 94.1921C55.318 94.1091 55.3987 93.9948 55.6294 94.0255C55.5194 93.5487 55.2382 93.133 54.8348 92.8641C54.3702 92.5951 54.4924 91.7638 54.688 91.4581C54.7937 91.293 54.7674 91.078 54.742 90.8708C54.7205 90.6944 54.6996 90.5238 54.7614 90.3945C54.8612 90.1858 54.732 90.0511 54.5588 89.8706C54.4987 89.8079 54.4332 89.7397 54.3702 89.6609C54.196 89.4432 54.5738 88.9899 54.894 88.6056C55.0234 88.4504 55.1434 88.3064 55.2138 88.1938C55.3019 88.0454 55.5343 87.8319 55.7882 87.5986C56.2035 87.2171 56.6762 86.7828 56.6686 86.4944C56.6442 86.0421 57.6711 86.1766 57.5978 86.6411L57.589 86.6965C57.5205 87.1236 57.4866 87.3352 58.0379 87.5581C58.3677 87.6984 58.4398 87.8991 58.5152 88.1094C58.5713 88.2656 58.6292 88.427 58.7959 88.5728L58.8571 88.6339C58.8571 88.6339 58.8571 88.6095 58.8693 88.6095C58.9105 88.5682 58.9397 88.5304 58.9602 88.4946C58.9385 88.5413 58.9028 88.5906 58.8448 88.6461C58.8448 88.6461 58.8448 88.6584 58.8326 88.6706C59.0414 88.9157 58.8997 89.1877 58.7778 89.4217C58.7356 89.5028 58.6957 89.5794 58.6736 89.6486C58.6159 89.8605 58.869 89.9282 59.0747 89.9833L59.0748 89.9833C59.1302 89.9981 59.1823 90.0121 59.2238 90.0276C59.3144 90.0616 59.2608 90.1165 59.1857 90.1936C59.0985 90.283 58.9822 90.4023 59.0282 90.5534C59.0638 90.6898 59.2403 90.7284 59.4099 90.7654C59.5899 90.8048 59.7621 90.8424 59.7495 90.9935C59.7495 91.0546 59.7495 91.1157 59.7617 91.1769C60.0674 91.1769 60.4953 91.1402 60.5564 90.9935L60.5686 91.0057C60.6223 90.8866 60.8267 91.0489 61.0492 91.2255C61.2834 91.4115 61.5376 91.6132 61.6567 91.5192C61.7473 91.4477 61.7319 91.2238 61.7172 91.0084C61.694 90.6713 61.6723 90.3549 62.0602 90.6756C62.5262 91.061 62.6966 90.9076 62.9037 90.7212C62.9791 90.6534 63.0594 90.5811 63.1605 90.5289C63.2711 90.4771 63.4218 90.4506 63.5788 90.4231C63.9773 90.3531 64.4166 90.2761 64.3464 89.7587C64.2882 89.3163 64.363 88.8738 64.5498 88.4736C64.5608 88.4711 64.5718 88.4683 64.5826 88.4652C64.3909 88.877 64.3128 89.3335 64.3587 89.7832C64.4389 90.3091 63.9861 90.3866 63.5786 90.4563H63.5786C63.4272 90.4822 63.282 90.5071 63.1727 90.5534C63.055 90.6034 62.9664 90.6814 62.8842 90.7538C62.6847 90.9297 62.5227 91.0724 62.0724 90.7001C61.6764 90.3788 61.7005 90.6968 61.7261 91.0346C61.7424 91.2495 61.7593 91.4724 61.669 91.5437C61.5506 91.6371 61.3022 91.4387 61.0708 91.2538C60.8479 91.0757 60.6409 90.9103 60.5809 91.0302C60.5075 91.1769 60.0918 91.2014 59.774 91.2014C59.8229 91.3848 59.9085 91.5559 60.0307 91.7149C60.1098 91.8365 59.9952 91.8976 59.8359 91.9826C59.6751 92.0683 59.4688 92.1784 59.3705 92.3995C59.1749 92.8396 59.4561 93.1331 59.6639 93.0108C60.0429 92.8519 60.4342 92.7663 60.8376 92.7663C60.9593 92.7845 61.0053 92.6908 61.0464 92.6071C61.0879 92.5225 61.1244 92.4481 61.2288 92.5095C61.3681 92.5869 61.4535 92.4635 61.5471 92.3284C61.6013 92.25 61.6583 92.1677 61.7301 92.1183C61.8769 92.0106 61.9846 92.0754 62.1911 92.1996L62.1911 92.1996L62.1913 92.1997C62.2426 92.2306 62.3001 92.2652 62.3658 92.3017C62.6959 92.4729 63.3317 92.3873 63.9552 92.3017C64.5787 92.2161 64.701 92.1917 65.3123 91.397C65.766 90.8071 65.9436 89.9612 66.05 89.4544C66.0869 89.2785 66.1153 89.1434 66.1436 89.0741C66.2537 88.8051 66.2048 87.2402 65.9602 87.1546C65.7618 87.0752 65.3539 85.9649 65.1485 85.4057L65.1484 85.4056C65.1008 85.2759 65.064 85.1758 65.0433 85.1251C64.993 84.9966 65.0091 84.8681 65.0263 84.7314C65.0466 84.569 65.0685 84.3951 64.9822 84.196C64.8355 83.8292 65.08 83.1812 65.3612 82.7778C65.5127 82.5603 65.7744 82.5169 66.0027 82.479C66.1978 82.4467 66.3685 82.4184 66.4248 82.2888C66.5471 82.0076 66.7427 81.7753 67.0606 81.8975C67.2195 81.9464 67.4029 81.9709 67.574 81.9464C67.7406 81.9226 67.8956 81.8641 68.039 81.7709C68.0408 81.7921 68.0493 81.8168 68.0582 81.8429L68.0583 81.8429L68.0583 81.8429C68.0644 81.8607 68.0707 81.8791 68.0753 81.8975C68.1665 81.8975 68.2614 81.9427 68.3535 81.9866C68.496 82.0544 68.6315 82.1189 68.7355 82.0075C68.9189 81.8241 69.2368 82.0198 69.249 82.2887C69.2612 82.5577 69.3835 82.6677 69.7869 82.5455C70.2026 82.4232 70.0803 82.9978 69.8481 83.0712C69.6158 83.1568 69.518 83.6336 69.6647 84.0003C69.8114 84.3671 70.0559 84.0003 70.117 83.7069C70.1782 83.4135 70.8139 83.4135 71.8531 83.5235C72.8923 83.6336 74.1515 83.4624 74.2371 83.3279C74.2713 83.279 74.3603 83.3592 74.4805 83.4675C74.661 83.6301 74.9119 83.8561 75.1541 83.8047C75.5457 83.7126 76.5233 84.1413 76.8703 84.2935L76.9268 84.3182C77.0913 84.3826 77.1972 84.3256 77.3376 84.2501C77.4372 84.1965 77.5541 84.1337 77.7215 84.0981C77.878 84.0567 77.9721 84.0118 78.0489 83.9752C78.176 83.9146 78.2554 83.8767 78.4917 83.9148C78.6506 83.9392 78.8096 83.9392 78.9563 83.8659C79.103 83.817 79.2253 83.7192 79.3231 83.5969C79.3596 83.5116 79.545 83.5295 79.7338 83.5478C79.9239 83.5662 80.1176 83.5849 80.1666 83.4991C80.2126 83.4129 80.3478 83.4077 80.4896 83.4023C80.6493 83.3963 80.8174 83.3899 80.8757 83.2668C80.9401 83.131 81.0587 83.1373 81.1852 83.1439C81.2751 83.1486 81.3691 83.1536 81.4504 83.1079C81.5414 83.0597 81.5949 82.9153 81.6479 82.7723C81.7158 82.5889 81.7829 82.408 81.9272 82.4354C82.1202 82.4618 82.0802 82.2552 82.0468 82.0822C82.0337 82.0141 82.0215 81.9512 82.025 81.9097C82.0319 81.8263 82.189 81.8496 82.3839 81.8785C82.5319 81.9004 82.7017 81.9256 82.8441 81.9097C82.9908 81.8853 83.1375 81.8364 83.272 81.763C83.4065 81.6897 83.5165 81.5796 83.6021 81.4574C83.7733 81.2006 84.2868 81.1517 84.5068 81.164C84.7147 81.1762 84.9714 80.8339 85.0814 80.4793C85.136 80.2881 85.2669 80.2838 85.3506 80.281C85.4167 80.2789 85.4533 80.2776 85.3993 80.1859C85.2893 79.9781 85.7049 79.7335 86.0839 79.8069L86.1206 79.7947ZM67.4382 80.3601L67.4612 80.3409C67.5409 80.2747 67.633 80.1982 67.6351 80.1037C67.615 80.124 67.5933 80.1437 67.5719 80.1632C67.5231 80.2077 67.4759 80.2507 67.4518 80.296C67.443 80.3125 67.4386 80.3342 67.4382 80.3601ZM63.3005 78.3262C63.2924 78.327 63.2843 78.3274 63.2762 78.3275C63.344 78.5483 63.3948 78.7535 63.3439 78.8655C63.2845 78.9843 63.3463 79.1463 63.4101 79.3137C63.4777 79.4911 63.5476 79.6745 63.4784 79.8191C63.3508 80.0859 63.7735 80.5838 64.026 80.6028C63.7702 80.5686 63.368 80.1113 63.5028 79.8191C63.5812 79.6493 63.506 79.4584 63.4358 79.2802C63.3746 79.125 63.3171 78.9794 63.3684 78.8655C63.4193 78.7433 63.3684 78.5447 63.3005 78.3262ZM64.1296 80.5952C64.3855 80.5814 64.7868 80.6875 64.6521 81.1028C64.5761 81.3371 64.605 81.4829 64.6302 81.6097C64.6537 81.7277 64.6739 81.8294 64.6032 81.9709C64.5291 82.1191 64.3613 82.0708 64.1788 82.0182C64.0001 81.9666 63.8071 81.911 63.674 82.032C63.5321 82.1672 63.7637 82.504 63.9807 82.8196C64.1563 83.075 64.3223 83.3164 64.2731 83.4258H64.2853C64.3343 83.3222 64.1697 83.0803 63.9948 82.8233C63.7773 82.5037 63.5439 82.1608 63.6862 82.032C63.8155 81.9204 63.9984 81.9754 64.1712 82.0273C64.358 82.0834 64.5328 82.136 64.6154 81.9709C64.6946 81.8124 64.6736 81.7087 64.6492 81.5884C64.6247 81.4674 64.5968 81.3297 64.6643 81.1029C64.8034 80.674 64.3821 80.5638 64.1296 80.5952ZM64.2853 83.4258C64.2146 83.5603 64.2544 83.7889 64.2957 84.0263C64.3258 84.1992 64.3567 84.3767 64.3464 84.5261C64.335 84.6982 64.4096 84.9267 64.487 85.1639C64.5746 85.4322 64.6658 85.7114 64.6398 85.932C64.6065 86.2158 64.7782 86.4995 64.9216 86.7366C64.9883 86.8469 65.0489 86.947 65.08 87.0324C65.1044 87.228 65.0922 87.4114 65.0433 87.5948C65.0234 87.6945 64.989 87.7906 64.9421 87.8811C64.9969 87.7835 65.0388 87.6791 65.0677 87.5703C65.1167 87.3869 65.1167 87.1913 65.0922 87.0079C65.0612 86.9228 64.9997 86.823 64.9319 86.7131C64.7855 86.4758 64.6103 86.1917 64.6521 85.9076C64.6783 85.6778 64.5847 85.3916 64.4962 85.121L64.4962 85.121C64.4199 84.8876 64.3473 84.6658 64.3587 84.5016C64.3693 84.3477 64.3361 84.1685 64.3042 83.9959L64.3042 83.9958C64.2626 83.7709 64.223 83.5573 64.2853 83.4258ZM62.6915 88.3259C62.6891 88.3113 62.694 88.2954 62.7082 88.2794C62.7361 88.248 62.7361 88.2166 62.7188 88.1823C62.7167 88.1983 62.7095 88.2142 62.6959 88.2304C62.6623 88.2708 62.6657 88.3046 62.6915 88.3259ZM62.4383 87.8224C62.7527 87.692 62.8237 87.4628 62.9019 87.2105C62.9422 87.0805 62.9843 86.9443 63.0627 86.8123C63.1292 86.6794 63.1689 86.5375 63.1845 86.3948C63.165 86.5247 63.123 86.6495 63.0627 86.7634C62.9784 86.8983 62.9348 87.0362 62.8933 87.1674C62.8144 87.4166 62.7431 87.642 62.4148 87.7781C62.4011 87.7599 62.3891 87.7417 62.3789 87.7228C62.396 87.7587 62.4163 87.7918 62.4383 87.8224ZM61.0571 86.9584C60.7627 86.665 60.0732 86.7105 59.5099 86.9537C60.0732 86.7114 60.7627 86.6767 61.0571 86.9584ZM59.0772 87.8512L59.0893 87.8148C59.0665 87.8619 59.0497 87.9051 59.0374 87.9452C59.048 87.9157 59.0611 87.8845 59.0771 87.8514L59.0772 87.8512ZM55.8485 86.499C55.8553 86.5273 55.8622 86.556 55.868 86.5855C55.8629 86.563 55.8573 86.541 55.8518 86.5192C55.8374 86.4622 55.8233 86.4065 55.8198 86.3484C55.8246 86.3992 55.8364 86.4486 55.8485 86.499ZM56.0329 84.7584C56.0854 84.9159 56.1066 85.086 56.1054 85.2552C56.1043 85.0978 56.0826 84.9403 56.0329 84.7828C55.9864 84.6679 55.9521 84.55 55.9305 84.4351C55.953 84.5422 55.9871 84.6516 56.0329 84.7584ZM62.3414 87.6192C62.3397 87.6125 62.3378 87.606 62.3355 87.5996C62.3378 87.606 62.3397 87.6125 62.3414 87.6192L62.3414 87.6192ZM56.9131 82.5455C56.9502 82.5932 56.9638 82.6449 56.9613 82.6956C56.9591 82.6531 56.9445 82.6103 56.9131 82.57C56.8816 82.5295 56.8709 82.4848 56.8733 82.4378C56.8754 82.476 56.8873 82.5123 56.9131 82.5455ZM57.0354 81.8119C57.0603 81.8389 57.0683 81.8715 57.0653 81.9081C57.0629 81.8819 57.0538 81.8578 57.0354 81.8364C56.8255 81.4865 56.7268 81.0922 56.7288 80.6852C56.7308 81.0835 56.8297 81.4691 57.0354 81.8119ZM60.4702 79.1724L60.4605 79.1471C60.4906 79.147 60.5214 79.1478 60.5521 79.1487C60.7022 79.1531 60.8507 79.1573 60.911 79.0367C60.9835 78.8917 61.3371 78.6937 61.5701 78.5755C61.5833 78.578 61.5959 78.5809 61.6079 78.5843C61.6079 78.5843 61.6123 78.5843 61.6184 78.5853C61.3866 78.699 61.0104 78.9028 60.9354 79.0611C60.8743 79.1833 60.7199 79.1783 60.564 79.1732C60.5328 79.1722 60.5015 79.1712 60.4708 79.1712C60.5075 79.2567 60.5442 79.3546 60.5687 79.4524C60.5795 79.523 60.53 79.6154 60.4706 79.7263C60.3963 79.8649 60.3065 80.0324 60.2997 80.2226C60.2997 80.2423 60.3017 80.26 60.3055 80.276C60.2849 80.2476 60.2735 80.2107 60.2752 80.1615C60.282 79.9713 60.3718 79.8038 60.4461 79.6652C60.5056 79.5543 60.5551 79.4619 60.5442 79.3912C60.5251 79.3147 60.4985 79.2457 60.4702 79.1724ZM60.8132 80.7116C60.822 80.6557 60.8207 80.6103 60.8117 80.573C60.8401 80.6185 60.852 80.6818 60.8376 80.7728C60.7935 81.0522 60.6697 81.2034 60.5355 81.3673C60.4466 81.4759 60.3532 81.5901 60.2752 81.7508C60.1816 81.9439 60.0628 81.9998 59.9536 82.0511C59.8347 82.107 59.7272 82.1576 59.6762 82.3743C59.6675 82.4101 59.6649 82.4408 59.6676 82.4671C59.6441 82.4314 59.6373 82.3814 59.6517 82.3132C59.7019 82.1064 59.8066 82.057 59.9231 82.002C60.0339 81.9497 60.1554 81.8923 60.2508 81.6897C60.3306 81.5202 60.4266 81.4035 60.5174 81.2933C60.6491 81.1332 60.7697 80.9867 60.8132 80.7116ZM61.3756 82.6922C61.3724 82.6781 61.3686 82.6642 61.364 82.6506C61.3804 82.6823 61.3923 82.7167 61.4 82.7532C61.3885 82.7343 61.3802 82.714 61.3756 82.6922ZM63.0196 83.375C63.0115 83.3381 63.0041 83.301 62.9973 83.2637C62.9989 83.2688 63.0003 83.2739 63.0016 83.279C63.0071 83.311 63.0131 83.343 63.0196 83.375ZM63.1017 84.8811C63.2341 84.7043 63.3719 84.5202 63.3859 84.3738C63.4018 84.5219 63.2504 84.7255 63.1045 84.9217C62.984 85.0839 62.8671 85.2411 62.8515 85.3577C62.833 85.24 62.9645 85.0645 63.1017 84.8811ZM60.8194 77.9546L60.8376 77.9363C60.8376 77.9241 60.8407 77.9119 60.8437 77.8997C60.8468 77.8874 60.8499 77.8752 60.8499 77.863C60.8536 77.8479 60.8554 77.8333 60.8555 77.819C60.8346 77.8625 60.8224 77.9085 60.8194 77.9546ZM60.4036 77.1496C60.4131 77.1348 60.4233 77.1199 60.4342 77.105C60.5198 77.0072 60.6298 76.8849 60.7276 76.7993C60.8009 76.7138 60.8376 76.6526 60.8376 76.5793L60.8375 76.5714C60.8236 76.5905 60.8074 76.6095 60.7887 76.6282C60.7687 76.6494 60.7475 76.6714 60.7258 76.694C60.5785 76.8471 60.4072 77.0252 60.4036 77.1496ZM60.5418 75.3794C60.5506 75.3667 60.5595 75.355 60.5687 75.3445C60.5809 75.32 60.6053 75.2833 60.6298 75.2833C60.6542 75.2589 60.6787 75.2222 60.6542 75.1733L60.6526 75.1694C60.6097 75.219 60.5712 75.2938 60.5418 75.3794ZM59.7745 74.422L59.7827 74.4087L59.7862 74.4031C59.7899 74.3957 59.7936 74.3871 59.7977 74.3778C59.807 74.3564 59.8181 74.3308 59.8351 74.3053L59.842 74.2911C59.8129 74.3399 59.7868 74.3846 59.7745 74.422ZM59.9696 73.9874C60.1897 73.7306 60.8132 73.3639 61.3144 73.1927C61.5956 73.0827 61.7668 72.8871 61.8768 72.6548C61.8805 72.6475 61.8843 72.6403 61.8881 72.6332C61.7729 72.807 61.6193 72.9518 61.3878 73.0338C60.801 73.2416 59.9819 73.7306 59.9696 73.9874ZM62.4637 78.4498C62.5082 78.5657 62.4229 79.0128 62.2692 79.1662C62.3591 78.9611 62.4131 78.6904 62.3781 78.6088C62.3441 78.5294 62.3941 78.4291 62.4795 78.3272C62.4586 78.3731 62.4507 78.4161 62.4637 78.4498ZM81.1692 85.3696C80.3134 86.3477 80.7657 87.2769 80.888 87.2524C81.267 87.1913 83.5899 85.3085 83.4921 84.8439C83.4065 84.3916 82.0127 84.3916 81.1692 85.3696ZM69.2123 84.3916C68.8578 84.2204 67.6596 84.306 67.6596 85.2596C67.6596 86.1888 69.1267 86.2621 69.3223 85.9442C69.4089 85.7885 69.6369 85.6464 69.8575 85.5089C70.1045 85.3549 70.3422 85.2068 70.3615 85.0518C70.4064 84.8366 69.9646 84.6806 69.5812 84.5452C69.4418 84.4959 69.3101 84.4494 69.2123 84.4038V84.3916ZM66.4615 101.948C66.5341 101.982 66.6001 101.997 66.6609 102.002C66.6263 102.002 66.5888 102.001 66.5471 101.997C66.5104 101.997 66.4737 101.985 66.437 101.96L66.4126 101.936C66.3881 101.923 66.3759 101.899 66.3759 101.862C66.3515 101.838 66.3392 101.813 66.3392 101.777C66.3218 101.751 66.3168 101.724 66.311 101.694L66.3109 101.694L66.3109 101.694C66.3086 101.681 66.3061 101.668 66.3026 101.654C66.3026 101.637 66.2973 101.618 66.2917 101.597C66.2851 101.572 66.2781 101.546 66.2781 101.52C66.2551 101.428 66.2465 101.331 66.2373 101.226L66.2372 101.226L66.2372 101.226L66.2372 101.226C66.2318 101.164 66.2261 101.099 66.217 101.031C65.9969 100.921 65.1044 101.471 64.7377 101.96C64.4502 102.322 64.1416 102.17 63.6678 101.937C63.517 101.863 63.3494 101.78 63.1605 101.703C62.6206 101.484 62.4183 101.864 62.2283 102.221C62.1429 102.382 62.0601 102.538 61.9502 102.632C61.728 102.823 61.4337 102.452 61.1475 102.091C61.0137 101.923 60.8817 101.756 60.7597 101.651L60.7623 101.633L60.7643 101.618L60.6542 101.557C60.2752 101.422 59.1994 102.082 59.395 102.596C59.5291 102.961 59.4362 103.312 59.3542 103.622C59.3017 103.821 59.2536 104.003 59.2727 104.161C59.2875 104.301 59.3736 104.437 59.4638 104.579C59.5229 104.672 59.5837 104.768 59.6273 104.87C61.0332 105.2 62.5003 105.396 64.0041 105.444C65.6791 105.493 67.3295 105.359 68.9067 105.029C68.9067 104.98 68.9067 104.931 68.87 104.882C68.7233 104.54 68.5888 103.745 68.9678 103.892C69.156 103.959 69.1573 103.796 69.1588 103.613C69.1603 103.427 69.162 103.219 69.359 103.207H69.518C69.518 103.207 69.5049 103.19 69.4892 103.17L69.5405 103.171C69.9463 103.172 70.4505 103.174 70.3249 102.877C70.2656 102.748 70.4082 102.799 70.6104 102.871C70.8669 102.964 71.2191 103.09 71.3763 102.926C71.6575 102.632 71.2785 102.131 71.0095 102.058L71.0706 102.07C70.7894 102.009 70.2026 101.679 70.3249 101.434C70.4471 101.178 70.1292 100.444 69.7992 100.285C69.4691 100.126 68.7355 100.615 68.5766 100.884C68.5046 101.012 68.3599 101.024 68.2095 101.036C68.0278 101.051 67.8377 101.067 67.7574 101.288C67.6841 101.447 67.5741 101.483 67.4273 101.459L67.4265 101.464C67.381 101.456 67.3345 101.445 67.2888 101.434C67.1109 101.391 66.9447 101.351 66.8894 101.471C66.8136 101.623 66.6908 101.473 66.5531 101.306C66.4687 101.204 66.3786 101.094 66.2903 101.043C66.2903 101.508 66.3515 101.899 66.4737 101.96L66.4615 101.948ZM66.8405 101.997C66.8287 101.997 66.817 101.997 66.8051 101.997C66.8362 101.993 66.866 101.988 66.8946 101.982C67.0058 101.962 67.1004 101.944 67.1951 102.021L67.1706 102.009C67.1461 101.997 67.1217 101.985 67.1095 101.985C67.085 101.972 67.0606 101.972 67.0361 101.972C66.975 101.972 66.9261 101.972 66.8772 101.997H66.8405ZM61.3389 103.146C61.3059 103.146 61.273 103.146 61.2475 103.139C61.2581 103.138 61.2683 103.137 61.2778 103.134C61.3267 103.134 61.3878 103.134 61.4489 103.146L61.4703 103.151C61.4179 103.142 61.3784 103.136 61.3389 103.146ZM62.6104 103.611C62.5519 103.605 62.4865 103.591 62.4182 103.568C62.4627 103.581 62.5065 103.591 62.5492 103.598C62.6917 103.619 62.8088 103.595 62.9278 103.57C63.0714 103.54 63.2177 103.51 63.4148 103.557C63.2453 103.529 63.1114 103.556 62.9814 103.583C62.8625 103.607 62.7469 103.631 62.6104 103.611ZM64.591 104.271C64.4792 104.271 64.397 104.262 64.3346 104.246C64.3873 104.254 64.4513 104.259 64.5298 104.259C64.646 104.256 64.7493 104.265 64.8415 104.279C64.7653 104.271 64.6821 104.268 64.591 104.271ZM65.7035 104.1C65.6166 104.349 65.5188 104.395 65.3657 104.377C65.4848 104.374 65.5677 104.307 65.6424 104.087C65.6913 103.965 65.7402 103.88 65.8135 103.806C65.8258 103.782 65.8502 103.757 65.8747 103.757C65.9352 103.709 65.9956 103.675 66.0532 103.644C66.1119 103.611 66.1676 103.58 66.217 103.537C66.2781 103.488 66.327 103.427 66.3637 103.317C66.3881 103.232 66.4248 103.195 66.4737 103.17C66.4921 103.17 66.5073 103.164 66.5226 103.158C66.5379 103.152 66.5532 103.146 66.5715 103.146C66.6226 103.137 66.6781 103.139 66.7354 103.141C66.8429 103.145 66.9569 103.149 67.0606 103.085C67.0789 103.085 67.0972 103.064 67.1156 103.044C67.1217 103.037 67.1278 103.03 67.1339 103.024C67.1951 102.975 67.2317 102.938 67.2684 102.853C67.2806 102.834 67.2898 102.813 67.299 102.791L67.299 102.791C67.3082 102.77 67.3173 102.749 67.3295 102.73C67.354 102.657 67.3907 102.608 67.4273 102.559L67.4273 102.559C67.5891 102.356 67.8421 102.337 68.1105 102.397C67.8652 102.353 67.6379 102.383 67.4885 102.571C67.4518 102.608 67.4029 102.657 67.3784 102.743C67.3662 102.791 67.3418 102.84 67.3295 102.865C67.2929 102.95 67.2562 102.987 67.1951 103.036C67.1706 103.06 67.1462 103.085 67.1217 103.097C67.0108 103.153 66.8947 103.152 66.7901 103.151H66.79C66.7333 103.15 66.68 103.15 66.6327 103.158C66.596 103.158 66.5715 103.158 66.5349 103.183C66.486 103.183 66.4371 103.244 66.4126 103.317C66.3915 103.412 66.3431 103.471 66.2987 103.524L66.2986 103.524L66.29 103.535L66.2781 103.549C66.2287 103.593 66.1731 103.623 66.1143 103.656C66.0568 103.688 65.9963 103.721 65.9358 103.77C65.9113 103.77 65.8869 103.794 65.8747 103.818C65.8013 103.892 65.7524 103.965 65.7035 104.1ZM48.5996 96.4707C48.404 96.7152 48.3306 97.6811 48.8197 97.5099C49.3087 97.3387 48.783 96.2262 48.5996 96.4707ZM54.0156 101.08C53.5877 101.202 53.4166 101.63 53.8934 101.85L53.8689 101.862C54.1219 101.975 54.1164 102.245 54.111 102.508C54.1093 102.589 54.1077 102.668 54.1134 102.743C52.8297 102.046 51.6316 101.214 50.5313 100.285C50.4824 99.5272 50.299 98.7447 50.0545 98.5736C49.8874 98.4399 49.9588 97.9941 50.0352 97.5171C50.1266 96.9471 50.2251 96.3325 49.9322 96.1528C49.6246 95.9641 49.5688 95.5154 49.5135 95.0698C49.472 94.7362 49.4308 94.4043 49.2842 94.1845C48.9419 93.671 48.4162 92.0816 48.8686 91.7271C49.0393 91.5799 49.1108 91.7162 49.225 91.934C49.3481 92.1684 49.5206 92.4973 49.92 92.6685C50.7147 93.0108 51.057 93.4143 50.9958 93.9766C50.9694 94.2868 51.253 94.7858 51.5138 95.2447C51.7361 95.636 51.9419 95.9982 51.925 96.1895C51.8761 96.7152 52.1084 97.3876 52.3529 97.3876C52.5852 97.3876 52.8297 97.6933 52.9398 98.0601C52.9852 98.2247 53.0675 98.2602 53.1513 98.2962C53.2478 98.3378 53.3463 98.3802 53.3921 98.6225C53.4327 98.8426 53.5199 98.953 53.5862 99.0368C53.6597 99.1298 53.7074 99.1901 53.6366 99.3316C53.5794 99.4518 53.6803 99.5264 53.7875 99.6057C53.9092 99.6958 54.039 99.7918 53.9545 99.9673C53.8844 100.118 53.9736 100.331 54.0575 100.531C54.1638 100.785 54.2617 101.018 54.0156 101.08ZM68.3565 90.2355C68.5888 90.3455 68.8578 90.2477 68.9678 90.0154C69.0778 89.7831 68.9678 89.5142 68.7477 89.4041C68.5277 89.2941 68.2465 89.4041 68.1364 89.6242C68.0264 89.8443 68.1364 90.1255 68.3443 90.2355H68.3565ZM66.4615 94.2822C66.3515 94.5023 66.0703 94.6123 65.8502 94.5023H65.8624C65.6424 94.3923 65.5323 94.1233 65.6424 93.891C65.7524 93.6587 66.0458 93.5609 66.2537 93.6709C66.4615 93.781 66.5715 94.0622 66.4615 94.2822Z" fill="white"/>
  <path d="M91.1454 72.0924C90.6686 71.5789 90.0451 71.1877 89.4949 70.7476C89.3971 70.8454 89.2871 70.9554 89.1893 71.0532C89.7884 72.0924 90.4119 73.1071 90.962 74.1708C94.911 81.6774 94.6665 88.9885 90.0451 96.1773C86.8908 101.092 82.7463 105.139 78.4184 108.917C72.929 113.709 67.0361 118.025 60.911 122.047C55.226 125.788 50.0055 125.58 44.4673 122.145C40.2493 119.529 36.2393 116.704 32.5349 113.403C27.1922 108.635 22.1062 103.659 17.8394 97.8767C12.3134 90.37 8.56003 82.0931 6.50609 73.0093C5.35686 67.9234 5.50357 63.1431 8.08322 58.3384C11.5187 51.932 15.92 46.4426 21.5561 41.8946C26.6665 37.7745 32.4615 35.7695 39.0634 35.7328C43.8437 35.7084 48.245 37.0777 52.6586 38.6059C59.3338 40.9166 66.1436 42.2369 73.2102 40.8188C75.3252 40.3909 77.3792 39.6573 79.8732 38.9482C79.4698 39.7307 79.2375 40.2197 78.9807 40.672C77.1835 43.7652 74.3227 45.5746 71.2051 47.0661C66.9016 49.1323 63.6862 52.0665 62.4148 56.5167C62.2069 57.238 62.0358 57.9838 61.9379 58.7785C61.7301 60.3801 60.8865 60.6246 59.5784 60.0989C58.4291 59.6465 57.6222 59.9766 56.8887 60.9669C55.4338 62.923 53.4899 64.2067 51.1303 64.8547C50.2745 65.087 49.3943 65.2948 48.6485 65.735C46.9735 66.7375 45.5064 66.4685 44.1738 65.1848C44.1372 65.1604 40.5794 61.5782 38.7822 59.8788C36.7894 57.9838 34.4543 58.0449 32.4615 59.8421C30.7621 61.3826 29.5884 63.2531 29.3317 65.4905C29.026 68.1435 28.7326 70.8576 28.9527 73.4984C29.7351 82.9978 33.464 91.1158 40.5061 97.7299C45.3231 102.253 50.6535 105.212 56.6319 106.386C46.1177 104.087 38.1098 90.0766 35.7869 85.2963C33.2562 80.0636 31.7891 74.5865 32.4615 68.7425C32.6693 66.9087 33.4151 65.0503 34.2587 63.3754C35.0289 61.8472 36.1904 61.8227 37.4741 62.9719C39.0879 64.4268 40.6772 65.9061 42.2788 67.3732C43.0124 67.9356 46.8391 69.7328 49.2842 68.4124C51.8883 67.0187 52.6463 67.7033 56.0206 65.1604C57.0109 64.4146 58.0624 62.5807 61.5589 62.6785C64.8966 62.7763 65.459 58.8885 65.6424 56.5534C65.7402 56.1255 65.8135 55.9299 65.9847 55.4042C66.6449 53.338 68.2342 52.2254 69.9336 51.1618C72.5377 49.5358 75.1663 47.922 77.7337 46.2226C82.1594 43.2884 83.8588 38.4959 84.3601 33.8134C85.2893 25.1942 82.1594 17.4552 76.0954 11.3423C66.6204 1.79395 54.7492 -1.39699 41.7531 0.583593C28.6226 2.5764 18.2796 9.59402 10.724 20.5117C4.86783 28.9719 2.16592 38.6426 0.662149 48.6677C-0.352594 55.4286 -0.181433 62.2017 1.04115 68.9748C3.48631 82.4721 9.46474 94.27 18.1695 104.699C26.373 114.528 36.4104 122.133 47.8538 127.915C50.299 129.15 52.8297 129.187 55.3971 128.735C59.1871 128.074 62.2069 125.825 65.3245 123.746C75.7653 116.802 85.5582 109.21 92.857 98.7569C98.5054 90.6634 98.4687 79.9047 91.1577 72.0924H91.1454ZM4.73335 56.4556C4.59886 56.0766 4.31767 55.6731 4.35435 55.3064C4.72112 50.0859 5.52802 44.9511 7.22741 39.9752C9.69703 32.7742 12.5456 25.7688 17.2037 19.6559C23.7567 11.0611 32.3148 5.74289 43.0368 4.0435C49.0764 3.08988 55.1282 3.07766 60.8621 5.40056C71.3641 9.64292 78.6017 16.9295 81.1936 28.2751C81.6582 30.3046 80.619 32.8353 78.8585 34.0457C75.2885 36.5275 71.1807 36.772 67.0483 36.9921C62.3292 37.151 57.989 35.4639 53.551 34.2657C49.9689 33.2877 46.3256 32.1751 42.6456 31.9184C32.9505 31.2582 24.1602 33.7889 16.8125 40.4887C12.9735 43.9975 9.47696 47.7752 7.09293 52.4455C6.56722 53.4725 6.20044 54.5728 5.66251 55.5875C5.47912 55.9421 5.02677 56.1622 4.70889 56.4434L4.73335 56.4556Z" fill="#99C352"/>
  <path fill-rule="evenodd" clip-rule="evenodd" d="M335.808 32.5852V59.2823C335.808 61.8464 335.844 64.2562 335.903 65.645H330.666C330.595 65.0278 330.475 63.6151 330.475 62.6536C329.333 64.9209 327.524 66.0842 323.762 66.0842C317.763 66.0842 314.704 61.1342 314.704 54.0118C314.704 46.8894 318.382 41.8325 324.715 41.8325C328.297 41.8325 329.892 43.1264 330.452 44.1829V32.5852H335.808ZM320.203 53.8218C320.203 58.6413 322.013 61.6921 325.452 61.6921C329.809 61.6921 330.678 58.6057 330.678 53.7387C330.678 48.2426 329.38 46.2721 325.667 46.2721C322.346 46.2721 320.203 48.8599 320.203 53.8218ZM129.187 65.6569H133.305V48.4325H120.747V53.1452H127.83V53.3114C127.83 57.9291 126.675 61.6683 121.081 61.6683C115.486 61.6683 113.213 56.6352 113.213 50.2487C113.213 43.8623 115.451 38.4968 121.247 38.4968C125.616 38.4968 127.234 40.8234 127.937 43.2688H133.364C132.543 37.9507 128.722 34.0097 121.545 34.0097C112.487 34.0097 107.523 41.1796 107.523 50.2131C107.523 59.2467 111.725 66.108 119.914 66.108C124.021 66.108 127.139 65.004 128.758 61.7277C128.829 63.2827 128.984 64.6835 129.187 65.6569ZM139.851 42.2954C139.935 43.7555 139.947 46.4145 139.947 50.2131H139.935V65.645H145.303V54.7358C145.303 49.489 147.505 47.3641 152.48 47.3523V41.9036C148.35 41.9274 146.124 44.3253 145.232 46.6044C145.232 44.8238 145.196 43.34 145.089 42.2954H139.851ZM160.539 55.1395C160.527 58.6176 161.931 61.8108 165.621 61.8108C168.74 61.8108 169.704 59.7809 170.085 58.677H175.358C174.346 62.2263 171.763 66.0724 165.443 66.0724C158.003 66.0724 155.111 60.7662 155.111 53.9643C155.111 48.1952 157.991 41.8443 165.693 41.8443C173.394 41.8443 175.679 47.4829 175.679 53.2877C175.679 53.537 175.643 54.8665 175.619 55.1514H160.55L160.539 55.1395ZM170.418 51.5427C170.311 48.4563 169.073 45.9397 165.597 45.9397C161.717 45.9397 160.777 49.216 160.634 51.5427H170.418ZM190.081 61.8108C186.392 61.8108 184.987 58.6176 184.999 55.1395L185.011 55.1514H200.08C200.104 54.8665 200.139 53.537 200.139 53.2877C200.139 47.4829 197.854 41.8443 190.153 41.8443C182.452 41.8443 179.571 48.1952 179.571 53.9643C179.571 60.7662 182.476 66.0724 189.903 66.0724C196.223 66.0724 198.806 62.2263 199.818 58.677H194.545C194.164 59.7809 193.2 61.8108 190.081 61.8108ZM190.058 45.9397C193.533 45.9397 194.771 48.4563 194.878 51.5427H185.094C185.237 49.216 186.177 45.9397 190.058 45.9397ZM205.198 49.5839C205.198 44.7526 205.15 43.3044 205.103 42.2954H210.34C210.412 42.7227 210.542 44.4796 210.531 45.5242C211.483 43.613 213.673 41.8324 217.184 41.8324C221.91 41.8324 224.6 44.7288 224.6 50.4149V65.645H219.22V51.4002C219.22 48.5037 218.398 46.3195 215.292 46.3195C212.185 46.3195 210.566 48.4444 210.566 52.8009V65.6568H205.198V49.5839ZM262.546 34.4252H243.073V65.6569H248.501V52.3024H261.677V47.7678H248.501V39.0191H262.546V34.4252ZM271.306 55.1395C271.295 58.6176 272.699 61.8108 276.389 61.8108C279.508 61.8108 280.472 59.7809 280.853 58.677H286.126C285.114 62.2263 282.531 66.0724 276.21 66.0724C268.771 66.0724 265.879 60.7662 265.879 53.9643C265.879 48.1952 268.759 41.8443 276.46 41.8443C284.162 41.8443 286.447 47.4829 286.447 53.2877C286.447 53.537 286.411 54.8665 286.387 55.1514H271.318L271.306 55.1395ZM281.186 51.5427C281.079 48.4563 279.841 45.9397 276.365 45.9397C272.485 45.9397 271.545 49.216 271.402 51.5427H281.186ZM300.861 61.8108C297.171 61.8108 295.767 58.6176 295.779 55.1395L295.791 55.1514H310.86C310.883 54.8665 310.919 53.537 310.919 53.2877C310.919 47.4829 308.634 41.8443 300.933 41.8443C293.232 41.8443 290.351 48.1952 290.351 53.9643C290.351 60.7662 293.255 66.0724 300.683 66.0724C307.003 66.0724 309.586 62.2263 310.598 58.677H305.325C304.944 59.7809 303.98 61.8108 300.861 61.8108ZM300.837 45.9397C304.313 45.9397 305.551 48.4563 305.658 51.5427H295.874C296.017 49.216 296.957 45.9397 300.837 45.9397ZM347.866 32.5852H342.497V37.9982H347.866V32.5852ZM347.866 42.2954H342.497V65.6569H347.866V42.2954ZM354.436 49.5839C354.436 44.7526 354.388 43.3044 354.341 42.2954H359.578C359.649 42.7227 359.78 44.4796 359.768 45.5242C360.721 43.613 362.911 41.8324 366.422 41.8324C371.147 41.8324 373.838 44.7288 373.838 50.4149V65.645H368.457V51.4002C368.457 48.5037 367.636 46.3195 364.53 46.3195C361.423 46.3195 359.804 48.4444 359.804 52.8009V65.6568H354.436V49.5839ZM389.18 75.0941C396.953 75.0941 399.905 70.7494 399.905 63.5202V49.2516C399.905 46.0228 399.952 43.4469 400 42.3073H394.787C394.703 42.7584 394.548 43.9811 394.548 44.6814C393.977 43.2451 392.358 41.8443 388.668 41.8443C383.372 41.8443 378.968 46.557 378.968 53.7862C378.968 61.0155 382.634 65.4788 388.204 65.4788C391.311 65.4788 393.489 64.5054 394.679 62.1669V63.7695C394.679 68.2922 393.739 70.9156 389.466 70.9156C386.812 70.9156 385.11 69.8235 384.681 67.7343H379.372C379.682 71.153 381.848 75.0941 389.18 75.0941ZM389.656 61.0273C386.419 61.0273 384.514 58.2496 384.514 53.6794C384.514 48.6937 386.705 46.284 389.823 46.284C393.989 46.284 394.822 48.7887 394.822 53.6082C394.822 58.76 393.489 61.0273 389.656 61.0273Z" fill="#006269"/>
  <path fill-rule="evenodd" clip-rule="evenodd" d="M131.662 106.183V80.1035H135.9V106.183H131.662ZM128.603 98.6336C127.913 102.705 125.187 106.539 119.033 106.539C111.439 106.539 108.654 100.948 108.654 93.8022C108.654 86.6561 112.082 81.2193 119.224 81.2193C125.556 81.2193 128.139 85.1841 128.46 89.1252H124.175C123.628 86.7985 122.569 84.7568 119.081 84.7568C114.713 84.7568 113.153 89.1014 113.153 93.7904C113.153 98.4793 114.546 103.026 119.14 103.026C122.569 103.026 123.735 100.782 124.306 98.6217H128.603V98.6336ZM144.589 80.1035H140.351V84.3769H144.589V80.1035ZM144.589 87.76H140.351V106.183H144.589V87.76ZM149.052 93.4817C149.052 89.9679 149.017 88.6028 148.981 87.76H153.087C153.171 88.3417 153.218 89.41 153.23 90.0866C154.159 88.5672 155.777 87.392 158.372 87.392C160.967 87.392 162.348 88.5909 163.014 90.3597C163.836 88.8284 165.752 87.392 168.525 87.392C171.549 87.392 174.298 88.9708 174.298 93.7666V106.171H170.144V94.4551C170.144 92.6032 169.501 90.8939 167.252 90.8939C164.8 90.8939 163.788 92.7576 163.788 95.5709V106.171H159.646V94.3126C159.646 92.4489 158.813 90.9295 156.765 90.9295C154.492 90.9295 153.242 92.4489 153.242 95.8321V106.171H149.052V93.4817ZM192.831 106.183C192.664 104.984 192.569 102.895 192.569 101.637L192.557 101.649V93.363C192.557 88.9234 189.701 87.4039 185.511 87.4039C180.107 87.4039 178.345 90.2054 178.119 93.1731H182.226C182.44 91.5943 183.094 90.4547 185.427 90.4547C187.927 90.4547 188.403 91.8317 188.403 93.4224V94.9062H186.011C179.536 94.9062 177.405 97.7552 177.405 100.889C177.405 103.596 178.952 106.504 183.499 106.504C186.284 106.504 188.058 105.364 188.808 103.75C188.832 104.533 188.951 105.602 189.082 106.183H192.831ZM186.07 97.6958H188.546V97.7077V98.0876C188.546 101.138 187.689 103.239 184.547 103.239C182.547 103.239 181.678 101.969 181.678 100.58C181.678 99.1915 182.368 97.6958 186.07 97.6958ZM194.521 87.7601H197.247V82.6438H201.461V87.7601H204.9V91.0838H201.461V101.233C201.461 102.587 201.794 103.156 203.317 103.156C203.782 103.156 204.055 103.133 204.532 103.061V106.041C203.663 106.338 202.413 106.385 201.746 106.385C198.473 106.385 197.247 105.091 197.247 101.791V91.0838H194.521V87.7601ZM214.435 103.156C211.518 103.156 210.423 100.628 210.423 97.8857H222.291C222.314 97.6483 222.338 96.6155 222.338 96.4137C222.338 91.8435 220.541 87.392 214.47 87.392C208.4 87.392 206.126 92.4133 206.126 96.9598C206.126 102.325 208.412 106.516 214.28 106.516C219.267 106.516 221.303 103.489 222.1 100.687H217.946C217.66 101.554 216.887 103.156 214.435 103.156ZM214.423 90.6327C217.16 90.6327 218.136 92.6151 218.22 95.0486H210.507C210.614 93.2205 211.364 90.6327 214.423 90.6327ZM238.169 99.7731L236.205 106.183H231.908C232.319 104.971 234.07 99.3339 235.812 93.7263L235.813 93.7227L235.815 93.7172L235.821 93.6976L235.823 93.6894C237.506 88.2724 239.177 82.8919 239.621 81.5635H245.227L253.321 106.183H248.727L246.644 99.7731H238.181H238.169ZM245.727 96.1407C245.549 95.5772 245.376 95.0337 245.21 94.5096L245.21 94.5086C243.769 89.9653 242.791 86.8823 242.311 84.9348H242.263C241.633 87.7244 240.454 91.5586 239.026 96.1407H245.727ZM262.76 106.516C267.688 106.516 270.009 103.607 270.616 99.9393V99.9274H266.414C265.926 101.815 265.117 103.251 262.867 103.251C260.38 103.251 258.939 101.281 258.939 96.8292C258.939 93.2086 260.106 90.6802 262.939 90.6802C265.236 90.6802 266.141 92.3183 266.379 94.1227H270.604C270.449 91.4043 268.688 87.392 263.022 87.392C257.678 87.392 254.619 91.3093 254.619 96.9716C254.619 103.038 257.261 106.516 262.76 106.516ZM272.033 87.7601H274.758V82.6438H278.972V87.7601H282.412V91.0838H278.972V101.233C278.972 102.587 279.305 103.156 280.829 103.156C281.293 103.156 281.567 103.133 282.043 103.061V106.041C281.174 106.338 279.924 106.385 279.258 106.385C275.984 106.385 274.758 105.091 274.758 101.791V91.0838H272.033V87.7601ZM289.244 80.1035H285.007V84.3769H289.244V80.1035ZM289.244 87.76H285.007V106.183H289.244V87.76ZM309.669 96.6987C309.669 102.064 307.17 106.528 301.016 106.528C294.862 106.528 292.553 101.815 292.553 96.8055C292.553 92.1285 295.172 87.4039 301.254 87.4039C306.967 87.4039 309.669 91.6062 309.669 96.6987ZM296.862 96.705C296.863 100.737 298.351 103.156 301.194 103.156C304.039 103.156 305.36 100.77 305.36 96.7224C305.36 92.9476 303.956 90.7633 301.064 90.7633C298.339 90.7633 296.863 93.1232 296.862 96.705ZM312.895 87.7601C312.931 88.5673 312.966 89.7069 312.966 93.5173V106.183H317.204V96.0458C317.204 92.6152 318.477 90.9414 320.929 90.9414C323.381 90.9414 324.024 92.6745 324.024 94.9537V106.195H328.273V94.1821C328.273 89.695 326.143 87.4039 322.417 87.4039C319.644 87.4039 317.918 88.8047 317.168 90.3123C317.18 89.4813 317.085 88.0924 317.025 87.7601H312.895ZM345.997 85.1959H339.129V81.5635H357.281V85.1959H350.389V106.183H345.997V85.1959ZM363.827 106.528C369.981 106.528 372.481 102.064 372.481 96.6987C372.481 91.6062 369.779 87.4039 364.065 87.4039C357.983 87.4039 355.364 92.1285 355.364 96.8055C355.364 101.815 357.674 106.528 363.827 106.528ZM364.006 103.156C361.163 103.156 359.675 100.737 359.673 96.705C359.675 93.1232 361.151 90.7633 363.875 90.7633C366.767 90.7633 368.172 92.9476 368.172 96.7224C368.172 100.77 366.851 103.156 364.006 103.156ZM391.823 96.6987C391.823 102.064 389.323 106.528 383.169 106.528C377.016 106.528 374.706 101.815 374.706 96.8055C374.706 92.1285 377.325 87.4039 383.407 87.4039C389.121 87.4039 391.823 91.6062 391.823 96.6987ZM379.015 96.705C379.017 100.737 380.505 103.156 383.348 103.156C386.193 103.156 387.514 100.77 387.514 96.7224C387.514 92.9476 386.109 90.7633 383.217 90.7633C380.493 90.7633 379.017 93.123 379.015 96.705ZM395.12 80.1035V106.183H399.357V80.1035H395.12Z" fill="#99C352"/>
</svg>
